PathFileType	4	(X/Y/Z)	TVC_60_BWA02_walk_RCNL2025.trc
DataRate	CameraRate	NumFrames	NumMarkers	Units	OrigDataRate	OrigDataStartFrame	OrigNumFrames
100	100	9	27	mm	100	104	276
Frame#	Time	R_Shoulder			L_Shoulder			C7			J_Notch			R_Elbow			L_Elbow			R_Wrist			L_Wrist			R_Asis			L_Asis			R_Psis			L_Psis			Sacral			Thoracic			Sternum			R_Thigh_Lateral			R_Knee_Lateral			R_Shank_Lateral			R_Ankle_Lateral			R_Heel			R_Toe			L_Thigh_Lateral			L_Knee_Lateral			L_Shank_Lateral			L_Ankle_Lateral			L_Heel			L_Toe		
		X1	Y1	Z1	X2	Y2	Z2	X3	Y3	Z3	X4	Y4	Z4	X5	Y5	Z5	X6	Y6	Z6	X7	Y7	Z7	X8	Y8	Z8	X9	Y9	Z9	X10	Y10	Z10	X11	Y11	Z11	X12	Y12	Z12	X13	Y13	Z13	X14	Y14	Z14	X15	Y15	Z15	X16	Y16	Z16	X17	Y17	Z17	X18	Y18	Z18	X19	Y19	Z19	X20	Y20	Z20	X21	Y21	Z21	X22	Y22	Z22	X23	Y23	Z23	X24	Y24	Z24	X25	Y25	Z25	X26	Y26	Z26	X27	Y27	Z27
104	1.03000000	-57.670078	1313.918457	-126.786880	-84.537621	1330.809692	-478.080902	-123.812149	1388.342529	-302.954071	-18.177780	1254.653320	-310.221191	-178.550583	1005.081970	-39.674728	-93.215569	990.095520	-558.412170	-157.701004	771.294006	2.319921	34.949733	797.071899	-602.259583	-39.558899	895.152710	-159.440491	-65.810867	903.684265	-444.188965	-220.780960	891.300781	-220.435699	-232.510239	899.711609	-329.320374	-226.645599	895.506195	-274.878036	-188.514618	1180.654297	-294.896759	1.945209	1061.546753	-299.074768	22.675224	601.447937	-83.879829	102.287773	463.470398	-160.482300	149.463013	253.197159	-125.002762	176.925293	77.752281	-194.277527	138.784454	60.948147	-245.142670	305.596008	98.968369	-197.697891	-128.565384	619.541565	-492.138947	-137.064774	429.346771	-405.934296	-207.303329	246.626282	-425.940979	-267.223999	61.359474	-337.113037	-311.470032	68.809204	-293.752777	-142.444107	42.069607	-328.706207
105	1.04000000	-49.551220	1313.235474	-126.371651	-76.775604	1329.941406	-477.737000	-115.678108	1387.634033	-302.541779	-10.116441	1253.851929	-309.931519	-172.201050	1005.161438	-39.311214	-84.985550	989.286804	-558.223389	-153.114700	771.375519	3.558193	43.744473	796.690094	-602.389618	-31.182959	894.142883	-159.129700	-58.334518	902.870667	-443.952515	-212.596924	890.596191	-219.638214	-224.639496	899.097656	-328.426361	-218.618210	894.846924	-274.032288	-180.335281	1179.923828	-294.263641	9.925997	1060.607910	-298.904022	29.479202	600.042847	-84.172630	109.594337	462.637329	-160.930832	161.534210	253.738983	-125.162766	193.191071	78.511436	-194.636551	155.079041	60.862316	-245.223557	321.797150	102.296196	-198.971603	-123.441635	619.186157	-491.882965	-134.097839	429.129028	-405.654297	-205.766861	247.022079	-425.766541	-267.012878	62.040184	-337.056427	-311.178619	69.791817	-293.687744	-142.389221	42.061974	-328.667175
106	1.05000000	-41.355385	1312.596069	-125.891487	-68.966888	1329.108887	-477.326447	-107.487366	1386.964600	-302.059998	-1.984239	1253.102661	-309.575684	-165.703247	1005.272217	-38.886665	-76.869568	988.502930	-557.910400	-148.344040	771.500580	4.823550	52.303467	796.260651	-602.415253	-22.668566	893.168335	-158.769165	-50.755447	902.087769	-443.669342	-204.273285	889.922607	-218.771942	-216.639664	898.513306	-327.458374	-210.456474	894.217957	-273.115158	-172.066452	1179.218628	-293.564941	18.016876	1059.719238	-298.671234	36.473919	598.429626	-84.463318	117.064117	461.811310	-161.363159	172.781189	254.114624	-125.356186	207.619202	79.099686	-195.023819	169.555969	60.788788	-245.403671	336.162476	104.904144	-199.990173	-118.299332	618.907410	-491.616302	-131.051651	429.003357	-405.372681	-204.166000	247.520874	-425.604065	-266.768524	62.843269	-337.039001	-310.850555	70.919891	-293.672882	-142.325867	42.061409	-328.654175
107	1.06000000	-33.082855	1312.009155	-125.344177	-61.107582	1328.322632	-476.846619	-99.238327	1386.342285	-301.507477	6.221243	1252.416260	-309.150635	-159.052292	1005.418762	-38.399612	-68.864250	987.754761	-557.471863	-143.381248	771.672699	6.116855	60.622475	795.788971	-602.334808	-14.010504	892.241882	-158.361267	-43.062302	901.342285	-443.341888	-195.803864	889.291382	-217.840942	-208.501724	897.967834	-326.421417	-202.152794	893.629608	-272.131180	-163.705994	1178.546631	-292.803040	26.224882	1058.893677	-298.373932	43.681534	596.727966	-84.721184	124.715897	460.999207	-161.771286	183.131790	254.228073	-125.612114	220.133682	79.405632	-195.493301	182.139755	60.634514	-245.751770	348.621552	106.636749	-200.789276	-113.103973	618.710876	-491.348114	-127.883194	428.967468	-405.097412	-202.469559	248.125732	-425.462738	-266.482758	63.779522	-337.071564	-310.478027	72.209900	-293.721069	-142.249634	42.069248	-328.672485
108	1.07000000	-24.734331	1311.482910	-124.727867	-53.194210	1327.592896	-476.295410	-90.929817	1385.775146	-300.883148	14.501987	1251.802856	-308.653900	-152.243530	1005.604919	-37.848839	-60.966167	987.053101	-556.906494	-138.218666	771.894623	7.439358	68.697971	795.281281	-602.146820	-5.204400	891.376587	-157.908859	-35.243092	900.640747	-442.972198	-187.183548	888.714111	-216.849930	-200.217178	897.470093	-325.321594	-193.700363	893.092102	-271.085762	-155.252380	1177.915649	-291.980682	34.556648	1058.143799	-298.010254	51.113876	595.047791	-84.915558	132.555725	460.203705	-162.146347	192.536255	253.999741	-125.957214	230.714767	79.342651	-196.086655	192.804443	60.321404	-246.313858	359.155792	107.383644	-201.426331	-107.818764	618.597595	-491.085602	-124.549217	429.016388	-404.835846	-200.646515	248.838837	-425.350494	-266.146973	64.858376	-337.163971	-310.053131	73.676781	-293.844116	-142.154770	42.087036	-328.726654
109	1.08000000	-16.310925	1311.025146	-124.041168	-45.223705	1326.929565	-475.671082	-82.561119	1385.270142	-300.186462	22.859476	1251.271851	-308.083435	-145.272583	1005.833618	-37.233459	-53.171906	986.408813	-556.213074	-132.848732	772.168274	8.792630	76.527220	794.744202	-601.850037	3.752890	890.585083	-157.415131	-27.285324	899.989136	-442.561646	-178.408646	888.202148	-215.804245	-191.778458	897.028442	-324.165955	-185.093552	892.615295	-269.985100	-146.704880	1177.333130	-291.100830	43.018192	1057.481934	-297.579010	58.770088	593.477844	-85.022141	140.577179	459.424194	-162.479309	200.974869	253.376312	-126.413651	239.405289	78.857101	-196.829132	201.582275	59.793877	-247.109222	367.805817	107.090485	-201.970001	-102.405075	618.564880	-490.833069	-121.009384	429.143677	-404.594208	-198.668106	249.661789	-425.273346	-265.752289	66.087669	-337.324219	-309.567780	75.333397	-294.051880	-142.034012	42.116447	-328.819885
110	1.09000000	-7.814175	1310.642578	-123.283241	-37.193401	1326.342041	-474.972443	-74.131981	1384.834106	-299.417053	31.294651	1250.832031	-307.437988	-138.135437	1006.107056	-36.552910	-45.478100	985.832214	-555.390808	-127.263954	772.494751	10.178484	84.108334	794.184937	-601.443481	12.862878	889.880249	-156.883667	-19.176281	899.393127	-442.110687	-169.477158	887.766357	-214.709900	-183.179291	896.650696	-322.962646	-176.328224	892.208527	-268.836273	-138.063568	1176.806274	-290.166809	51.614651	1056.919922	-297.079651	66.635704	592.078247	-85.027840	148.762497	458.658417	-162.761414	208.463425	252.337601	-126.995636	246.312378	77.933846	-197.727814	208.568542	59.025486	-248.130829	374.675690	105.763313	-202.488556	-96.821686	618.607117	-490.591095	-117.229027	429.342529	-404.376953	-196.509628	250.596191	-425.235229	-265.289642	67.473457	-337.558044	-309.013245	77.190315	-294.351837	-141.878784	42.159081	-328.953522
111	1.10000000	0.753925	1310.341553	-122.453873	-29.100988	1325.839600	-474.198914	-65.642654	1384.472656	-298.575195	39.807858	1250.490967	-306.716797	-130.828537	1006.426392	-35.806976	-37.881496	985.333374	-554.439392	-121.456860	772.874237	11.598915	91.440327	793.610992	-600.926575	22.125053	889.274414	-156.318161	-10.903456	898.857971	-441.618591	-160.389145	887.417358	-213.573410	-174.415085	896.343689	-321.720673	-167.402115	891.880524	-267.647041	-129.329453	1176.341553	-289.182129	60.349983	1056.469238	-296.512207	74.685783	590.879883	-84.932549	157.084702	457.904053	-162.984390	215.056137	250.900314	-127.706268	251.605026	76.597916	-198.771729	213.921341	58.023270	-249.348495	379.933350	103.466652	-203.039215	-91.024864	618.716003	-490.355957	-113.180656	429.607361	-404.185791	-194.151230	251.644287	-425.237701	-264.749512	69.020073	-337.868683	-308.379974	79.255730	-294.748627	-141.679413	42.216179	-329.126617
112	1.11000000	9.390890	1310.127197	-121.553543	-20.944511	1325.430176	-473.350616	-57.093899	1384.190796	-297.661438	48.398808	1250.255249	-305.919952	-123.348907	1006.791809	-34.995773	-30.378958	984.921509	-553.358826	-115.419926	773.305847	13.056021	98.523197	793.030151	-600.299042	31.536533	888.779724	-155.722321	-2.455149	898.388794	-441.083496	-151.147034	887.164673	-212.401794	-165.483414	896.113464	-320.449951	-158.315224	891.639069	-266.425873	-120.504486	1175.945312	-288.150604	69.226662	1056.139893	-295.877136	82.892769	589.889526	-84.746910	165.510239	457.160431	-163.140366	220.845657	249.118195	-128.535110	255.506668	74.912239	-199.933167	217.855850	56.828316	-250.713547	383.806213	100.316307	-203.660324	-84.970764	618.880127	-490.120911	-108.843971	429.934662	-404.019409	-191.577972	252.809387	-425.280579	-264.121613	70.730484	-338.257080	-307.657135	81.535965	-295.244080	-141.425613	42.288185	-329.335693
